#!OML:ASF E:\Mandelcareful walks\Project 1\Capture day 1\Session 1\Subject1.ASF
:FULLY-SPECIFIED
:DEGREES
561
root 38.6786 15.0442 -0.156845 235.468 -86.0727 135.019
lowerback 29.0744 0.595668 -7.89898
upperback 7.18865 -2.08156 1.11145
thorax -7.5825 -1.17782 6.57523
lowerneck -28.1065 7.43977 3.51677
upperneck 21.6824 10.5904 -5.98807
head 12.3286 4.15263 -0.867697
rclavicle 1.63003e-014 8.54774e-015
rhumerus -43.2497 1.24324 -74.3007
rradius 67.8637
rwrist -12.7966
rhand -16.4916 -10.8423
rfingers 7.12502
rthumb 9.72592 -40.5977
lclavicle 1.63003e-014 8.54774e-015
lhumerus -7.40363 -26.9583 65.6636
lradius 73.109
lwrist 25.9835
lhand -34.5522 -17.4776
lfingers 7.12502
lthumb -7.71258 12.3617
rfemur -55.9784 -16.0182 11.0451
rtibia 66.2933
rfoot -16.7147 -2.55243
rtoes -14.2841
lfemur -12.119 6.68868 -21.0502
ltibia 54.3717
lfoot -34.8565 7.538
ltoes -12.8426
562
root 38.2915 15.1408 -0.199219 243.588 -86.0054 127.738
lowerback 28.0935 0.0644411 -7.93821
upperback 6.91621 -2.6404 1.18217
thorax -7.31463 -1.42765 6.82007
lowerneck -28.1599 7.70267 3.53851
upperneck 21.8785 11.0993 -6.45271
head 12.4814 4.30057 -0.942893
rclavicle 1.39149e-014 1.11319e-014
rhumerus -44.0674 1.50848 -73.6882
rradius 69.7137
rwrist -12.5005
rhand -16.7237 -10.2639
rfingers 7.12502
rthumb 9.50195 -40.0297
lclavicle 1.39149e-014 1.11319e-014
lhumerus -7.51382 -27.8387 65.4247
lradius 73.1012
lwrist 25.614
lhand -34.0739 -18.2058
lfingers 7.12502
lthumb -7.25088 11.65
rfemur -57.3718 -15.9492 11.6879
rtibia 63.3909
rfoot -16.0451 -1.5542
rtoes -17.8139
lfemur -9.65427 6.42572 -21.2362
ltibia 50.7162
lfoot -34.0669 7.37884
ltoes -12.4657
563
root 37.8915 15.2464 -0.24651 248.078 -85.715 124.262
lowerback 26.8489 -0.315193 -7.89969
upperback 6.62288 -2.96935 1.19548
thorax -6.97747 -1.57264 6.85502
lowerneck -28.0435 7.97048 3.81286
upperneck 21.8996 11.5844 -7.20163
head 12.576 4.42935 -1.17411
rclavicle -2.36554e-014 4.55217e-014
rhumerus -44.9315 1.69587 -73.3646
rradius 71.4581
rwrist -13.0557
rhand -17.1705 -10.5142
rfingers 7.12502
rthumb 9.07084 -40.2992
lclavicle -2.36554e-014 4.55217e-014
lhumerus -7.69006 -28.9943 65.413
lradius 72.9057
lwrist 25.7688
lhand -33.0698 -19.6321
lfingers 7.12502
lthumb -6.28163 10.2547
rfemur -58.7715 -15.8296 12.3831
rtibia 60.7878
rfoot -14.7381 -0.684907
rtoes -20.4278
lfemur -7.2927 6.43157 -21.4004
ltibia 46.7143
lfoot -32.4126 7.08069
ltoes -12.1412
564
root 37.4648 15.3595 -0.297488 247.393 -85.2426 125.532
lowerback 25.9746 -0.59601 -7.63644
upperback 6.38374 -3.18112 0.99517
thorax -6.80462 -1.66406 6.49824
lowerneck -27.696 8.30423 4.14294
upperneck 21.8541 12.1303 -7.92068
head 12.6132 4.60409 -1.3963
rclavicle 3.16068e-014 -2.00773e-014
rhumerus -45.8498 1.81108 -73.3902
rradius 73.0059
rwrist -13.4434
rhand -16.8744 -10.3063
rfingers 7.12502
rthumb 9.35649 -40.0787
lclavicle 3.16068e-014 -2.00773e-014
lhumerus -8.0249 -30.101 65.3755
lradius 72.4561
lwrist 25.5848
lhand -31.6022 -20.4945
lfingers 7.12502
lthumb -4.86461 9.42968
rfemur -59.591 -15.6263 13.1736
rtibia 58.4019
rfoot -12.4579 0.0607015
rtoes -22.3372
lfemur -4.35003 6.7928 -21.4278
ltibia 42.4757
lfoot -29.9272 6.748
ltoes -12.3598
565
root 37.0161 15.4723 -0.345894 251.507 -84.5895 122.051
lowerback 25.0171 -1.07687 -7.40017
upperback 6.04897 -3.6567 0.716162
thorax -6.65745 -1.87418 6.14147
lowerneck -27.259 8.82667 4.51483
upperneck 22.2557 12.9365 -8.5151
head 12.8305 4.89721 -1.52609
rclavicle 2.76311e-014 1.51076e-014
rhumerus -46.7487 2.25319 -73.4881
rradius 74.3607
rwrist -13.4056
rhand -16.6425 -9.6475
rfingers 7.12502
rthumb 9.58028 -39.4097
lclavicle 2.76311e-014 1.51076e-014
lhumerus -8.93955 -30.8902 65.781
lradius 71.9063
lwrist 25.1076
lhand -30.442 -21.2344
lfingers 7.12502
lthumb -3.74426 8.71246
rfemur -60.3453 -16.0079 13.6915
rtibia 56.4277
rfoot -9.67189 0.614495
rtoes -23.008
lfemur -1.49777 6.68506 -21.852
ltibia 38.3309
lfoot -26.7614 6.45811
ltoes -12.7437
566
root 36.546 15.5778 -0.393537 255.533 -83.9273 118.766
lowerback 23.8045 -1.5971 -7.17086
upperback 5.69869 -4.15886 0.555055
thorax -6.38383 -2.10375 5.90253
lowerneck -27.0634 9.45233 4.59424
upperneck 22.9477 14.0401 -9.10148
head 13.2252 5.2673 -1.53725
rclavicle 9.94917e-014 2.68359e-014
rhumerus -47.5227 2.98814 -73.399
rradius 75.5922
rwrist -12.9728
rhand -16.7786 -9.12861
rfingers 7.12502
rthumb 9.44894 -38.8968
lclavicle 9.94917e-014 2.68359e-014
lhumerus -10.4729 -31.2509 66.7501
lradius 71.5426
lwrist 24.2306
lhand -29.941 -21.869
lfingers 7.12502
lthumb -3.26044 8.08582
rfemur -61.0428 -16.6695 14.3389
rtibia 54.8189
rfoot -6.47695 0.893581
rtoes -23.9091
lfemur 1.06162 6.35844 -22.2942
ltibia 34.5373
lfoot -22.8907 6.28508
ltoes -13.3676
567
root 36.0665 15.6653 -0.442792 258.636 -83.2915 116.519
lowerback 22.4326 -2.04825 -6.69209
upperback 5.44749 -4.51805 0.352105
thorax -5.96096 -2.28153 5.41297
lowerneck -27.417 10.1417 4.85818
upperneck 23.754 15.2152 -9.7905
head 13.8259 5.63402 -1.57765
rclavicle 7.55382e-015 1.82882e-014
rhumerus -47.861 3.41879 -73.2809
rradius 76.6359
rwrist -12.3407
rhand -17.1759 -8.80106
rfingers 7.12502
rthumb 9.06565 -38.5862
lclavicle 7.55382e-015 1.82882e-014
lhumerus -11.6765 -31.5214 67.5525
lradius 71.3635
lwrist 23.4487
lhand -29.681 -21.9348
lfingers 7.12502
lthumb -3.00943 8.02369
rfemur -61.7601 -17.414 15.1418
rtibia 53.8364
rfoot -4.01364 0.761923
rtoes -21.5714
lfemur 3.07532 5.90847 -22.6753
ltibia 31.4788
lfoot -18.5859 6.10976
ltoes -13.5235
568
root 35.5751 15.7322 -0.496646 261.468 -82.6447 114.487
lowerback 20.9834 -2.42159 -6.18376
upperback 5.233 -4.78095 0.158696
thorax -5.47044 -2.4181 4.88095
lowerneck -27.2196 10.8566 5.62591
upperneck 24.0249 16.3562 -11.0178
head 14.2312 5.99826 -1.92385
rclavicle 6.13748e-014 4.87022e-015
rhumerus -47.9799 3.8228 -73.0931
rradius 77.6065
rwrist -11.6767
rhand -17.6134 -9.58208
rfingers 7.12502
rthumb 8.64342 -39.3851
lclavicle 6.13748e-014 4.87022e-015
lhumerus -12.8263 -31.982 68.3839
lradius 71.3057
lwrist 23.8087
lhand -29.6271 -22.5642
lfingers 7.12502
lthumb -2.95733 7.39505
rfemur -62.3396 -18.172 15.916
rtibia 53.5123
rfoot -3.17198 -0.00874222
rtoes -14.9778
lfemur 4.6656 5.45356 -22.9824
ltibia 29.3686
lfoot -14.0807 5.8182
ltoes -13.5891
569
root 35.079 15.7742 -0.553338 264.272 -82.2729 112.232
lowerback 19.4759 -2.81843 -5.48862
upperback 5.22757 -5.04623 0.118383
thorax -4.72312 -2.57642 4.38943
lowerneck -26.2981 11.5498 6.30108
upperneck 23.4413 17.5038 -12.5134
head 14.1893 6.40487 -2.37405
rclavicle 2.50717e-014 1.33434e-014
rhumerus -47.657 4.49844 -72.7607
rradius 78.5498
rwrist -11.1855
rhand -17.003 -8.72551
rfingers 7.12502
rthumb 9.23248 -38.5034
lclavicle 2.50717e-014 1.33434e-014
lhumerus -13.9191 -31.92 69.1948
lradius 71.5486
lwrist 23.8494
lhand -29.6481 -23.249
lfingers 7.12502
lthumb -2.97761 6.70993
rfemur -62.0579 -18.9345 16.6866
rtibia 54.2376
rfoot -4.42303 -2.71952
rtoes -7.81502
lfemur 5.84902 4.87216 -22.9045
ltibia 28.4371
lfoot -9.45859 5.48985
ltoes -13.9281
